# xmcd CD database file
#
# Track frame offsets:
#	150
#	17882
#	39162
#	55725
#	74472
#	95825
#	111882
#	127952
#	130352
#	145187
#	159910
#	176209
#	190795
#	207912
#	218345
#	232720
#	248262
#
# Disc length: 3579 seconds
#
# Revision: 3
# Processed by: cddbd v1.5PL3 Copyright (c) Steve Scherf et al.
# Submitted via: CDex 1.50Beta6
#
DISCID=e10df911
DTITLE=大貫妙子 - History 1978〜1984 CD1
DYEAR=1900
DGENRE=JPop
TTITLE0=Tema Purissima
TTITLE1=黒のクレール
TTITLE2=愛の行方
TTITLE3=BOHEMIAN
TTITLE4=アヴァンチュリエール
TTITLE5=風の道
TTITLE6=RECIPE
TTITLE7=三ツ矢サイダー'84
TTITLE8=エル・トゥルマニエ(虹の神)
TTITLE9=海と少年
TTITLE10=色彩都市
TTITLE11=ピーターラビットとわたし
TTITLE12=宇宙(コスモス)みつけた
TTITLE13=みずうみ
TTITLE14=横顔
TTITLE15=新しいシャツ
TTITLE16=突然の贈り物
EXTD=
EXTT0=
EXTT1=
EXTT2=
EXTT3=
EXTT4=
EXTT5=
EXTT6=
EXTT7=
EXTT8=
EXTT9=
EXTT10=
EXTT11=
EXTT12=
EXTT13=
EXTT14=
EXTT15=
EXTT16=
PLAYORDER=
